G04 #@! TF.FileFunction,Copper,L1,Top,Signal*
%FSLAX46Y46*%
G04 Gerber Fmt 4.6, Leading zero omitted, Abs format (unit mm)*
G04 Created by KiCad (PCBNEW 4.0.2-stable) date 2018-11-15 20:30:23*
%MOMM*%
G01*
G04 APERTURE LIST*
%ADD10C,0.100000*%
%ADD11R,3.500000X2.000000*%
%ADD12R,7.000000X7.000000*%
%ADD13R,2.000000X2.000000*%
%ADD14C,2.000000*%
%ADD15R,2.500000X4.000000*%
%ADD16R,1.600000X1.000000*%
%ADD17R,1.000000X1.600000*%
%ADD18R,2.000000X1.700000*%
%ADD19R,1.700000X2.000000*%
%ADD20R,1.600000X0.550000*%
%ADD21R,0.550000X1.600000*%
%ADD22R,2.000000X4.500000*%
%ADD23R,1.700000X1.700000*%
%ADD24O,1.700000X1.700000*%
%ADD25R,2.540000X2.540000*%
%ADD26C,2.540000*%
%ADD27C,0.600000*%
%ADD28C,0.250000*%
G04 APERTURE END LIST*
D10*
D11*
X105038700Y-55129400D03*
X105038700Y-59709400D03*
D12*
X112438700Y-57429400D03*
D13*
X115125500Y-80987900D03*
D14*
X112605500Y-80987900D03*
X110105500Y-80987900D03*
X107605500Y-80987900D03*
X105105500Y-80987900D03*
D15*
X122059700Y-59740300D03*
X122059700Y-51740300D03*
D16*
X117703600Y-70462400D03*
X117703600Y-67462400D03*
D17*
X120257700Y-63169800D03*
X117257700Y-63169800D03*
D16*
X104101900Y-72124700D03*
X104101900Y-69124700D03*
X117436900Y-75172700D03*
X117436900Y-72172700D03*
X120192800Y-70331200D03*
X120192800Y-73331200D03*
X120192800Y-68454400D03*
X120192800Y-65454400D03*
D18*
X110776000Y-75971400D03*
X114776000Y-75971400D03*
D19*
X104089200Y-62846200D03*
X104089200Y-66846200D03*
D20*
X115171800Y-72065800D03*
X115171800Y-71265800D03*
X115171800Y-70465800D03*
X115171800Y-69665800D03*
X115171800Y-68865800D03*
X115171800Y-68065800D03*
X115171800Y-67265800D03*
X115171800Y-66465800D03*
D21*
X113721800Y-65015800D03*
X112921800Y-65015800D03*
X112121800Y-65015800D03*
X111321800Y-65015800D03*
X110521800Y-65015800D03*
X109721800Y-65015800D03*
X108921800Y-65015800D03*
X108121800Y-65015800D03*
D20*
X106671800Y-66465800D03*
X106671800Y-67265800D03*
X106671800Y-68065800D03*
X106671800Y-68865800D03*
X106671800Y-69665800D03*
X106671800Y-70465800D03*
X106671800Y-71265800D03*
X106671800Y-72065800D03*
D21*
X108121800Y-73515800D03*
X108921800Y-73515800D03*
X109721800Y-73515800D03*
X110521800Y-73515800D03*
X111321800Y-73515800D03*
X112121800Y-73515800D03*
X112921800Y-73515800D03*
X113721800Y-73515800D03*
D22*
X124193300Y-73592000D03*
X124193300Y-65092000D03*
D23*
X125323600Y-78536800D03*
D24*
X125323600Y-81076800D03*
X122783600Y-78536800D03*
X122783600Y-81076800D03*
X120243600Y-78536800D03*
X120243600Y-81076800D03*
D25*
X114960400Y-50749200D03*
D26*
X109880400Y-50749200D03*
X104800400Y-50749200D03*
D27*
X109626400Y-61976000D03*
X103987600Y-74269600D03*
X119227600Y-59385200D03*
X107340400Y-59690000D03*
X103698220Y-70472143D03*
X112029245Y-71612755D03*
X110337600Y-71897420D03*
X120823327Y-75641817D03*
X109220000Y-67005200D03*
X121389021Y-76207511D03*
X108580732Y-67751357D03*
X111302800Y-67411600D03*
X119684800Y-75488800D03*
D28*
X105038700Y-55129400D02*
X105038700Y-50987500D01*
X105038700Y-50987500D02*
X104800400Y-50749200D01*
X105038700Y-55129400D02*
X105038700Y-51986000D01*
X109626400Y-61976000D02*
X112438700Y-59163700D01*
X112438700Y-59163700D02*
X112438700Y-57429400D01*
X103987600Y-74269600D02*
X103987600Y-72239000D01*
X103987600Y-72239000D02*
X104101900Y-72124700D01*
X114960400Y-50749200D02*
X121068600Y-50749200D01*
X121068600Y-50749200D02*
X122059700Y-51740300D01*
X114960400Y-50749200D02*
X114960400Y-54907700D01*
X114960400Y-54907700D02*
X112438700Y-57429400D01*
X117703600Y-70462400D02*
X120061600Y-70462400D01*
X120061600Y-70462400D02*
X120192800Y-70331200D01*
X106671800Y-69665800D02*
X113976999Y-69665800D01*
X114046799Y-70390799D02*
X114046799Y-69596000D01*
X114046799Y-69596000D02*
X114046799Y-68940801D01*
X113976999Y-69665800D02*
X114046799Y-69596000D01*
X115171800Y-70465800D02*
X114121800Y-70465800D01*
X114121800Y-70465800D02*
X114046799Y-70390799D01*
X114046799Y-68940801D02*
X114121800Y-68865800D01*
X114121800Y-68865800D02*
X115171800Y-68865800D01*
X120192800Y-70331200D02*
X120192800Y-68454400D01*
X117257700Y-63169800D02*
X114429100Y-63169800D01*
X114429100Y-63169800D02*
X112438700Y-61179400D01*
X112438700Y-61179400D02*
X112438700Y-57429400D01*
X117436900Y-70080900D02*
X117436900Y-70511800D01*
X115171800Y-70465800D02*
X117390900Y-70465800D01*
X117390900Y-70465800D02*
X117436900Y-70511800D01*
X117436900Y-72172700D02*
X117436900Y-70511800D01*
X104101900Y-72124700D02*
X104101900Y-71185700D01*
X104101900Y-71185700D02*
X105621800Y-69665800D01*
X105621800Y-69665800D02*
X106671800Y-69665800D01*
X110776000Y-75971400D02*
X112026000Y-75971400D01*
X112026000Y-75971400D02*
X115717499Y-79662899D01*
X115717499Y-79662899D02*
X117090697Y-79662899D01*
X117090697Y-79662899D02*
X119679599Y-82251801D01*
X119679599Y-82251801D02*
X124148599Y-82251801D01*
X124148599Y-82251801D02*
X124473601Y-81926799D01*
X124473601Y-81926799D02*
X125323600Y-81076800D01*
X125323600Y-81076800D02*
X126498601Y-79901799D01*
X126498601Y-79901799D02*
X126498601Y-62679201D01*
X126498601Y-62679201D02*
X123559700Y-59740300D01*
X123559700Y-59740300D02*
X122059700Y-59740300D01*
X117703600Y-67462400D02*
X117703600Y-68212400D01*
X117703600Y-68212400D02*
X116250200Y-69665800D01*
X116250200Y-69665800D02*
X115171800Y-69665800D01*
X119227600Y-59385200D02*
X121704600Y-59385200D01*
X121704600Y-59385200D02*
X122059700Y-59740300D01*
X105038700Y-59709400D02*
X107321000Y-59709400D01*
X107321000Y-59709400D02*
X107340400Y-59690000D01*
X107942627Y-67783020D02*
X107942627Y-68159063D01*
X107425407Y-67265800D02*
X107942627Y-67783020D01*
X106671800Y-67265800D02*
X107425407Y-67265800D01*
X107942627Y-68159063D02*
X108429765Y-68646201D01*
X113541399Y-68646201D02*
X114121800Y-68065800D01*
X108429765Y-68646201D02*
X113541399Y-68646201D01*
X114121800Y-68065800D02*
X115171800Y-68065800D01*
X106671800Y-67265800D02*
X105621800Y-67265800D01*
X105621800Y-67265800D02*
X105264201Y-66908201D01*
X105264201Y-66908201D02*
X105264201Y-65271201D01*
X105264201Y-65271201D02*
X104089200Y-64096200D01*
X104089200Y-64096200D02*
X104089200Y-62846200D01*
X120257700Y-63169800D02*
X121007700Y-63169800D01*
X121007700Y-63169800D02*
X122059700Y-62117800D01*
X122059700Y-62117800D02*
X122059700Y-59740300D01*
X116317200Y-67970400D02*
X116317200Y-67798800D01*
X116317200Y-67798800D02*
X116653600Y-67462400D01*
X116653600Y-67462400D02*
X117703600Y-67462400D01*
X115171800Y-68065800D02*
X116221800Y-68065800D01*
X116221800Y-68065800D02*
X116317200Y-67970400D01*
X104089200Y-62846200D02*
X104089200Y-60658900D01*
X104089200Y-60658900D02*
X105038700Y-59709400D01*
X104101900Y-69124700D02*
X105151900Y-69124700D01*
X105151900Y-69124700D02*
X105410800Y-68865800D01*
X105410800Y-68865800D02*
X106671800Y-68865800D01*
X120243600Y-78536800D02*
X117436900Y-75730100D01*
X117436900Y-75730100D02*
X117436900Y-75172700D01*
X117436900Y-75172700D02*
X115574700Y-75172700D01*
X115574700Y-75172700D02*
X114776000Y-75971400D01*
X111321800Y-73515800D02*
X111321800Y-74565800D01*
X111321800Y-74565800D02*
X111552399Y-74796399D01*
X111552399Y-74796399D02*
X112350999Y-74796399D01*
X112350999Y-74796399D02*
X113526000Y-75971400D01*
X113526000Y-75971400D02*
X114776000Y-75971400D01*
X116643599Y-66637399D02*
X120260801Y-66637399D01*
X120260801Y-66637399D02*
X124193300Y-70569898D01*
X124193300Y-70569898D02*
X124193300Y-73592000D01*
X116015198Y-67265800D02*
X116643599Y-66637399D01*
X115171800Y-67265800D02*
X116015198Y-67265800D01*
X120192800Y-73331200D02*
X123932500Y-73331200D01*
X123932500Y-73331200D02*
X124193300Y-73592000D01*
X116708200Y-65454400D02*
X120192800Y-65454400D01*
X115171800Y-66465800D02*
X115696800Y-66465800D01*
X115696800Y-66465800D02*
X116708200Y-65454400D01*
X120192800Y-65454400D02*
X123830900Y-65454400D01*
X123830900Y-65454400D02*
X124193300Y-65092000D01*
X102976899Y-70175086D02*
X103273956Y-70472143D01*
X103273956Y-70472143D02*
X103698220Y-70472143D01*
X102976899Y-68108501D02*
X102976899Y-70175086D01*
X104089200Y-66996200D02*
X102976899Y-68108501D01*
X104089200Y-66846200D02*
X104089200Y-66996200D01*
X112029245Y-73073845D02*
X112029245Y-72037019D01*
X112029245Y-72037019D02*
X112029245Y-71612755D01*
X112471200Y-73515800D02*
X112029245Y-73073845D01*
X109880400Y-50749200D02*
X108610401Y-52019199D01*
X108610401Y-52019199D02*
X108610401Y-54892701D01*
X108610401Y-54892701D02*
X105118703Y-58384399D01*
X105118703Y-58384399D02*
X103028699Y-58384399D01*
X103028699Y-58384399D02*
X102914199Y-58498899D01*
X102914199Y-58498899D02*
X102914199Y-64421199D01*
X102914199Y-64421199D02*
X104089200Y-65596200D01*
X104089200Y-65596200D02*
X104089200Y-66846200D01*
X112921800Y-73515800D02*
X112471200Y-73515800D01*
X112471200Y-73515800D02*
X112121800Y-73515800D01*
X115125500Y-80987900D02*
X115125500Y-82237900D01*
X115125500Y-82237900D02*
X115050499Y-82312901D01*
X115050499Y-82312901D02*
X104469499Y-82312901D01*
X104469499Y-82312901D02*
X103780499Y-81623901D01*
X103780499Y-81623901D02*
X103780499Y-78907101D01*
X103780499Y-78907101D02*
X108121800Y-74565800D01*
X108121800Y-74565800D02*
X108121800Y-73515800D01*
X109721800Y-72465800D02*
X110290180Y-71897420D01*
X109721800Y-73515800D02*
X109721800Y-72465800D01*
X110290180Y-71897420D02*
X110337600Y-71897420D01*
X110521800Y-73515800D02*
X110521800Y-74565800D01*
X110521800Y-74565800D02*
X110291201Y-74796399D01*
X110291201Y-74796399D02*
X109515999Y-74796399D01*
X109515999Y-74796399D02*
X109450999Y-74861399D01*
X109450999Y-74861399D02*
X109450999Y-78919186D01*
X109450999Y-78919186D02*
X110105500Y-79573687D01*
X110105500Y-79573687D02*
X110105500Y-80987900D01*
X108921800Y-73515800D02*
X108921800Y-77171600D01*
X108921800Y-77171600D02*
X105105500Y-80987900D01*
X121123326Y-75341818D02*
X120823327Y-75641817D01*
X125323600Y-78536800D02*
X122128618Y-75341818D01*
X122128618Y-75341818D02*
X121123326Y-75341818D01*
X108121800Y-65015800D02*
X108121800Y-66065800D01*
X108121800Y-66065800D02*
X109061200Y-67005200D01*
X109061200Y-67005200D02*
X109220000Y-67005200D01*
X122783600Y-78536800D02*
X122783600Y-77334719D01*
X122783600Y-77334719D02*
X121656392Y-76207511D01*
X121656392Y-76207511D02*
X121389021Y-76207511D01*
X106671800Y-66465800D02*
X107721800Y-66465800D01*
X107721800Y-66465800D02*
X108580732Y-67324732D01*
X108580732Y-67324732D02*
X108580732Y-67327093D01*
X108580732Y-67327093D02*
X108580732Y-67751357D01*
X106671800Y-66465800D02*
X107440162Y-66465800D01*
X110794800Y-67411600D02*
X109524001Y-66140801D01*
X109524001Y-66140801D02*
X108996801Y-66140801D01*
X108996801Y-66140801D02*
X108921800Y-66065800D01*
X108921800Y-66065800D02*
X108921800Y-65015800D01*
X111302800Y-67411600D02*
X110794800Y-67411600D01*
X121608599Y-79901799D02*
X121608599Y-77412599D01*
X122783600Y-81076800D02*
X121608599Y-79901799D01*
X121608599Y-77412599D02*
X119684800Y-75488800D01*
M02*
