G04 #@! TF.FileFunction,Copper,L2,Bot,Signal*
%FSLAX46Y46*%
G04 Gerber Fmt 4.6, Leading zero omitted, Abs format (unit mm)*
G04 Created by KiCad (PCBNEW 4.0.2-stable) date 2018-11-15 20:30:23*
%MOMM*%
G01*
G04 APERTURE LIST*
%ADD10C,0.100000*%
%ADD11R,2.000000X2.000000*%
%ADD12C,2.000000*%
%ADD13R,1.700000X1.700000*%
%ADD14O,1.700000X1.700000*%
%ADD15R,2.540000X2.540000*%
%ADD16C,2.540000*%
%ADD17C,0.600000*%
%ADD18C,0.250000*%
G04 APERTURE END LIST*
D10*
D11*
X115125500Y-80987900D03*
D12*
X112605500Y-80987900D03*
X110105500Y-80987900D03*
X107605500Y-80987900D03*
X105105500Y-80987900D03*
D13*
X125323600Y-78536800D03*
D14*
X125323600Y-81076800D03*
X122783600Y-78536800D03*
X122783600Y-81076800D03*
X120243600Y-78536800D03*
X120243600Y-81076800D03*
D15*
X114960400Y-50749200D03*
D16*
X109880400Y-50749200D03*
X104800400Y-50749200D03*
D17*
X109626400Y-61976000D03*
X103987600Y-74269600D03*
X119227600Y-59385200D03*
X107340400Y-59690000D03*
X103698220Y-70472143D03*
X112029245Y-71612755D03*
X110337600Y-71897420D03*
X120823327Y-75641817D03*
X109220000Y-67005200D03*
X121389021Y-76207511D03*
X108580732Y-67751357D03*
X111302800Y-67411600D03*
X119684800Y-75488800D03*
D18*
X103073200Y-70815200D02*
X103073200Y-68529200D01*
X103073200Y-68529200D02*
X109626400Y-61976000D01*
X104287599Y-72029599D02*
X103073200Y-70815200D01*
X103987600Y-74269600D02*
X104287599Y-73969601D01*
X104287599Y-73969601D02*
X104287599Y-72029599D01*
X107605500Y-80987900D02*
X107605500Y-77887500D01*
X107605500Y-77887500D02*
X103987600Y-74269600D01*
X120243600Y-81076800D02*
X119007499Y-82312901D01*
X119007499Y-82312901D02*
X108930501Y-82312901D01*
X108930501Y-82312901D02*
X108605499Y-81987899D01*
X108605499Y-81987899D02*
X107605500Y-80987900D01*
X107340400Y-59690000D02*
X107645200Y-59385200D01*
X107645200Y-59385200D02*
X119227600Y-59385200D01*
X104122484Y-70472143D02*
X103698220Y-70472143D01*
X112029245Y-71612755D02*
X110888633Y-70472143D01*
X110888633Y-70472143D02*
X104122484Y-70472143D01*
X112605500Y-74165320D02*
X110337600Y-71897420D01*
X112605500Y-80987900D02*
X112605500Y-74165320D01*
X120523328Y-75941816D02*
X120823327Y-75641817D01*
X120351343Y-76113801D02*
X120523328Y-75941816D01*
X118227001Y-76113801D02*
X120351343Y-76113801D01*
X109519999Y-67305199D02*
X109519999Y-67406799D01*
X109519999Y-67406799D02*
X118227001Y-76113801D01*
X109220000Y-67005200D02*
X109519999Y-67305199D01*
X121032720Y-76563812D02*
X121089022Y-76507510D01*
X121089022Y-76507510D02*
X121389021Y-76207511D01*
X108580732Y-67751357D02*
X109228146Y-67751357D01*
X109228146Y-67751357D02*
X118040601Y-76563812D01*
X118040601Y-76563812D02*
X121032720Y-76563812D01*
X119684800Y-75488800D02*
X111607600Y-67411600D01*
X111607600Y-67411600D02*
X111302800Y-67411600D01*
M02*
