G04 #@! TF.FileFunction,Paste,Top*
%FSLAX46Y46*%
G04 Gerber Fmt 4.6, Leading zero omitted, Abs format (unit mm)*
G04 Created by KiCad (PCBNEW 4.0.2-stable) date 2018-11-15 20:30:23*
%MOMM*%
G01*
G04 APERTURE LIST*
%ADD10C,0.100000*%
%ADD11R,3.500000X2.000000*%
%ADD12R,7.000000X7.000000*%
%ADD13R,2.500000X4.000000*%
%ADD14R,1.600000X1.000000*%
%ADD15R,1.000000X1.600000*%
%ADD16R,2.000000X1.700000*%
%ADD17R,1.700000X2.000000*%
%ADD18R,1.600000X0.550000*%
%ADD19R,0.550000X1.600000*%
%ADD20R,2.000000X4.500000*%
G04 APERTURE END LIST*
D10*
D11*
X105038700Y-55129400D03*
X105038700Y-59709400D03*
D12*
X112438700Y-57429400D03*
D13*
X122059700Y-59740300D03*
X122059700Y-51740300D03*
D14*
X117703600Y-70462400D03*
X117703600Y-67462400D03*
D15*
X120257700Y-63169800D03*
X117257700Y-63169800D03*
D14*
X104101900Y-72124700D03*
X104101900Y-69124700D03*
X117436900Y-75172700D03*
X117436900Y-72172700D03*
X120192800Y-70331200D03*
X120192800Y-73331200D03*
X120192800Y-68454400D03*
X120192800Y-65454400D03*
D16*
X110776000Y-75971400D03*
X114776000Y-75971400D03*
D17*
X104089200Y-62846200D03*
X104089200Y-66846200D03*
D18*
X115171800Y-72065800D03*
X115171800Y-71265800D03*
X115171800Y-70465800D03*
X115171800Y-69665800D03*
X115171800Y-68865800D03*
X115171800Y-68065800D03*
X115171800Y-67265800D03*
X115171800Y-66465800D03*
D19*
X113721800Y-65015800D03*
X112921800Y-65015800D03*
X112121800Y-65015800D03*
X111321800Y-65015800D03*
X110521800Y-65015800D03*
X109721800Y-65015800D03*
X108921800Y-65015800D03*
X108121800Y-65015800D03*
D18*
X106671800Y-66465800D03*
X106671800Y-67265800D03*
X106671800Y-68065800D03*
X106671800Y-68865800D03*
X106671800Y-69665800D03*
X106671800Y-70465800D03*
X106671800Y-71265800D03*
X106671800Y-72065800D03*
D19*
X108121800Y-73515800D03*
X108921800Y-73515800D03*
X109721800Y-73515800D03*
X110521800Y-73515800D03*
X111321800Y-73515800D03*
X112121800Y-73515800D03*
X112921800Y-73515800D03*
X113721800Y-73515800D03*
D20*
X124193300Y-73592000D03*
X124193300Y-65092000D03*
M02*
