G04 #@! TF.FileFunction,Soldermask,Top*
%FSLAX46Y46*%
G04 Gerber Fmt 4.6, Leading zero omitted, Abs format (unit mm)*
G04 Created by KiCad (PCBNEW 4.0.2-stable) date 2018-11-15 20:30:23*
%MOMM*%
G01*
G04 APERTURE LIST*
%ADD10C,0.100000*%
%ADD11R,3.900000X2.400000*%
%ADD12R,7.400000X7.400000*%
%ADD13R,2.400000X2.400000*%
%ADD14C,2.400000*%
%ADD15R,2.900000X4.400000*%
%ADD16R,2.000000X1.400000*%
%ADD17R,1.400000X2.000000*%
%ADD18R,2.400000X2.100000*%
%ADD19R,2.100000X2.400000*%
%ADD20R,2.000000X0.950000*%
%ADD21R,0.950000X2.000000*%
%ADD22R,2.400000X4.900000*%
%ADD23R,2.100000X2.100000*%
%ADD24O,2.100000X2.100000*%
%ADD25R,2.940000X2.940000*%
%ADD26C,2.940000*%
G04 APERTURE END LIST*
D10*
D11*
X105038700Y-55129400D03*
X105038700Y-59709400D03*
D12*
X112438700Y-57429400D03*
D13*
X115125500Y-80987900D03*
D14*
X112605500Y-80987900D03*
X110105500Y-80987900D03*
X107605500Y-80987900D03*
X105105500Y-80987900D03*
D15*
X122059700Y-59740300D03*
X122059700Y-51740300D03*
D16*
X117703600Y-70462400D03*
X117703600Y-67462400D03*
D17*
X120257700Y-63169800D03*
X117257700Y-63169800D03*
D16*
X104101900Y-72124700D03*
X104101900Y-69124700D03*
X117436900Y-75172700D03*
X117436900Y-72172700D03*
X120192800Y-70331200D03*
X120192800Y-73331200D03*
X120192800Y-68454400D03*
X120192800Y-65454400D03*
D18*
X110776000Y-75971400D03*
X114776000Y-75971400D03*
D19*
X104089200Y-62846200D03*
X104089200Y-66846200D03*
D20*
X115171800Y-72065800D03*
X115171800Y-71265800D03*
X115171800Y-70465800D03*
X115171800Y-69665800D03*
X115171800Y-68865800D03*
X115171800Y-68065800D03*
X115171800Y-67265800D03*
X115171800Y-66465800D03*
D21*
X113721800Y-65015800D03*
X112921800Y-65015800D03*
X112121800Y-65015800D03*
X111321800Y-65015800D03*
X110521800Y-65015800D03*
X109721800Y-65015800D03*
X108921800Y-65015800D03*
X108121800Y-65015800D03*
D20*
X106671800Y-66465800D03*
X106671800Y-67265800D03*
X106671800Y-68065800D03*
X106671800Y-68865800D03*
X106671800Y-69665800D03*
X106671800Y-70465800D03*
X106671800Y-71265800D03*
X106671800Y-72065800D03*
D21*
X108121800Y-73515800D03*
X108921800Y-73515800D03*
X109721800Y-73515800D03*
X110521800Y-73515800D03*
X111321800Y-73515800D03*
X112121800Y-73515800D03*
X112921800Y-73515800D03*
X113721800Y-73515800D03*
D22*
X124193300Y-73592000D03*
X124193300Y-65092000D03*
D23*
X125323600Y-78536800D03*
D24*
X125323600Y-81076800D03*
X122783600Y-78536800D03*
X122783600Y-81076800D03*
X120243600Y-78536800D03*
X120243600Y-81076800D03*
D25*
X114960400Y-50749200D03*
D26*
X109880400Y-50749200D03*
X104800400Y-50749200D03*
M02*
