M48
;DRILL file {KiCad 4.0.2-stable} date 2018-11-15 20:30:31
;FORMAT={-:-/ absolute / metric / decimal}
FMAT,2
METRIC,TZ
T1C0.400
T2C1.000
T3C1.200
T4C1.524
%
G90
G05
M71
T1
X103.698Y-70.472
X103.988Y-74.27
X107.34Y-59.69
X108.581Y-67.751
X109.22Y-67.005
X109.626Y-61.976
X110.338Y-71.897
X111.303Y-67.412
X112.029Y-71.613
X119.228Y-59.385
X119.685Y-75.489
X120.823Y-75.642
X121.389Y-76.208
T2
X120.244Y-78.537
X120.244Y-81.077
X122.784Y-78.537
X122.784Y-81.077
X125.324Y-78.537
X125.324Y-81.077
T3
X105.105Y-80.988
X107.605Y-80.988
X110.105Y-80.988
X112.605Y-80.988
X115.125Y-80.988
T4
X104.8Y-50.749
X109.88Y-50.749
X114.96Y-50.749
T0
M30
