G04 #@! TF.FileFunction,Legend,Bot*
%FSLAX46Y46*%
G04 Gerber Fmt 4.6, Leading zero omitted, Abs format (unit mm)*
G04 Created by KiCad (PCBNEW 4.0.2-stable) date 2018-11-15 20:30:23*
%MOMM*%
G01*
G04 APERTURE LIST*
%ADD10C,0.100000*%
%ADD11C,0.300000*%
G04 APERTURE END LIST*
D10*
D11*
X118227659Y-60464038D02*
X117722583Y-60969115D01*
X118631720Y-60666069D02*
X117217506Y-59958962D01*
X117924613Y-61373175D01*
X117065983Y-62231805D02*
X117571060Y-61726729D01*
X116510399Y-60666069D01*
X116712430Y-62585359D02*
X115651769Y-61524698D01*
X115399231Y-61777237D01*
X115298217Y-61979267D01*
X115298216Y-62181298D01*
X115348724Y-62332820D01*
X115500247Y-62585359D01*
X115651769Y-62736882D01*
X115904308Y-62888405D01*
X116055831Y-62938913D01*
X116257862Y-62938912D01*
X116459891Y-62837897D01*
X116712430Y-62585359D01*
X115146693Y-64151095D02*
X115651769Y-63646019D01*
X114591109Y-62585359D01*
X112722327Y-64454141D02*
X112520297Y-64656171D01*
X112469789Y-64807695D01*
X112469789Y-65009725D01*
X112621312Y-65262263D01*
X112974865Y-65615816D01*
X113227404Y-65767340D01*
X113429434Y-65767340D01*
X113580957Y-65716831D01*
X113782987Y-65514801D01*
X113833495Y-65363279D01*
X113833495Y-65161248D01*
X113681972Y-64908709D01*
X113328419Y-64555156D01*
X113075881Y-64403634D01*
X112873850Y-64403634D01*
X112722327Y-64454141D01*
X112368773Y-66929015D02*
X112873850Y-66423939D01*
X111813189Y-65363279D01*
X111459636Y-66726985D02*
X111106083Y-67080538D01*
X111510143Y-67787645D02*
X112015220Y-67282569D01*
X110954560Y-66221908D01*
X110449483Y-66726985D01*
X111055575Y-68242214D02*
X109994915Y-67181553D01*
X109742376Y-67434092D01*
X109641362Y-67636122D01*
X109641361Y-67838153D01*
X109691869Y-67989675D01*
X109843392Y-68242214D01*
X109994915Y-68393737D01*
X110247453Y-68545260D01*
X110398976Y-68595768D01*
X110601007Y-68595767D01*
X110803036Y-68494752D01*
X111055575Y-68242214D01*
X126187659Y-56504241D02*
X126238167Y-56352718D01*
X126187660Y-56201196D01*
X125278522Y-55292058D01*
X125329030Y-57261855D02*
X125480553Y-57211348D01*
X125682583Y-57009317D01*
X125733091Y-56857795D01*
X125682584Y-56706272D01*
X125278522Y-56302210D01*
X125126999Y-56251703D01*
X124975476Y-56302210D01*
X124773446Y-56504241D01*
X124722939Y-56655764D01*
X124773446Y-56807287D01*
X124874461Y-56908302D01*
X125480553Y-56504241D01*
X124268370Y-57009317D02*
X124722938Y-57968962D01*
X123763294Y-57514393D01*
X123460248Y-57817439D02*
X123914816Y-58777084D01*
X122955172Y-58322515D02*
X123914816Y-58777084D01*
X124268370Y-58928607D01*
X124369385Y-58928607D01*
X124520908Y-58878099D01*
X123258217Y-59433683D02*
X122197557Y-58373023D01*
X122753141Y-59130638D02*
X122854157Y-59837744D01*
X122147050Y-59130637D02*
X122955172Y-59130638D01*
X122399587Y-60292313D02*
X121692481Y-59585206D01*
X121894512Y-59787237D02*
X121742989Y-59736729D01*
X121641973Y-59736729D01*
X121490450Y-59787236D01*
X121389435Y-59888252D01*
X121288420Y-61403480D02*
X120732836Y-60847897D01*
X120682329Y-60696374D01*
X120732836Y-60544850D01*
X120934867Y-60342820D01*
X121086390Y-60292313D01*
X121237913Y-61352973D02*
X121389435Y-61302465D01*
X121641973Y-61049927D01*
X121692481Y-60898405D01*
X121641974Y-60746881D01*
X121540959Y-60645866D01*
X121389435Y-60595358D01*
X121237913Y-60645866D01*
X120985375Y-60898405D01*
X120833851Y-60948912D01*
X120783344Y-61908557D02*
X119722683Y-60847897D01*
X120278268Y-61605511D02*
X120379283Y-62312617D01*
X119672176Y-61605511D02*
X120480298Y-61605511D01*
X118763039Y-62918710D02*
X118763038Y-62817695D01*
X118813546Y-62666172D01*
X118914562Y-62565156D01*
X119066085Y-62514648D01*
X119167100Y-62514649D01*
X119318623Y-62565156D01*
X119419638Y-62666171D01*
X119470145Y-62817695D01*
X119470146Y-62918710D01*
X119419638Y-63070232D01*
X119318622Y-63171248D01*
X119167100Y-63221756D01*
X119066085Y-63221755D01*
X118662024Y-62817695D02*
X119066085Y-63221755D01*
X119066085Y-63322771D01*
X119015577Y-63373278D01*
X118864053Y-63423786D01*
X118712531Y-63373278D01*
X118459993Y-63120740D01*
X118409485Y-62868202D01*
X118459993Y-62615664D01*
X118611516Y-62363126D01*
X118864053Y-62211603D01*
X119116592Y-62161095D01*
X119369130Y-62211603D01*
X119621668Y-62363125D01*
X119773191Y-62615664D01*
X119823699Y-62868202D01*
X119773191Y-63120741D01*
X119621668Y-63373278D01*
X119369131Y-63524801D01*
X119116592Y-63575309D01*
X117399333Y-63878354D02*
X118257963Y-64736984D01*
X118409486Y-64787491D01*
X118510501Y-64787492D01*
X118662023Y-64736984D01*
X118813546Y-64585461D01*
X118864054Y-64433938D01*
X118055932Y-64534954D02*
X118207455Y-64484446D01*
X118409485Y-64282415D01*
X118459994Y-64130892D01*
X118459993Y-64029877D01*
X118409486Y-63878354D01*
X118106440Y-63575309D01*
X117954917Y-63524801D01*
X117853902Y-63524801D01*
X117702378Y-63575309D01*
X117500348Y-63777339D01*
X117449841Y-63928862D01*
X117601363Y-65090537D02*
X116894256Y-64383431D01*
X116995272Y-64484446D02*
X116894257Y-64484446D01*
X116742733Y-64534954D01*
X116591211Y-64686476D01*
X116540704Y-64837999D01*
X116591211Y-64989522D01*
X117146794Y-65545106D01*
X116591211Y-64989522D02*
X116439688Y-64939015D01*
X116288165Y-64989522D01*
X116136642Y-65141045D01*
X116086134Y-65292568D01*
X116136642Y-65444091D01*
X116692226Y-65999674D01*
X115732581Y-66959319D02*
X115176997Y-66403736D01*
X115126490Y-66252213D01*
X115176997Y-66100690D01*
X115379028Y-65898659D01*
X115530551Y-65848152D01*
X115682074Y-66908812D02*
X115833596Y-66858304D01*
X116086134Y-66605766D01*
X116136642Y-66454244D01*
X116086135Y-66302721D01*
X115985120Y-66201705D01*
X115833596Y-66151197D01*
X115682074Y-66201705D01*
X115429535Y-66454244D01*
X115278012Y-66504751D01*
X115227504Y-67464396D02*
X114520398Y-66757289D01*
X114166844Y-66403736D02*
X114267860Y-66403736D01*
X114267860Y-66504752D01*
X114166845Y-66504751D01*
X114166844Y-66403736D01*
X114267860Y-66504752D01*
X114570905Y-68120995D02*
X114621414Y-67969472D01*
X114570906Y-67817950D01*
X113661768Y-66908812D01*
X114065829Y-68424041D02*
X114065830Y-68525056D01*
X114166844Y-68525056D01*
X114166845Y-68424041D01*
X114065829Y-68424041D01*
X114166844Y-68525056D01*
X113156692Y-69434194D02*
X113308214Y-69383686D01*
X113510245Y-69181656D01*
X113560753Y-69030133D01*
X113560753Y-68929117D01*
X113510245Y-68777594D01*
X113207200Y-68474549D01*
X113055677Y-68424042D01*
X112954662Y-68424041D01*
X112803138Y-68474549D01*
X112601108Y-68676579D01*
X112550600Y-68828102D01*
X112601108Y-70090793D02*
X112651616Y-69939270D01*
X112651616Y-69838254D01*
X112601108Y-69686731D01*
X112298063Y-69383686D01*
X112146540Y-69333179D01*
X112045525Y-69333178D01*
X111894001Y-69383686D01*
X111742478Y-69535208D01*
X111691971Y-69686731D01*
X111691971Y-69787747D01*
X111742478Y-69939270D01*
X112045524Y-70242316D01*
X112197047Y-70292823D01*
X112298063Y-70292823D01*
X112449585Y-70242315D01*
X112601108Y-70090793D01*
X111792986Y-70898915D02*
X111085879Y-70191808D01*
X111186895Y-70292824D02*
X111085880Y-70292823D01*
X110934356Y-70343331D01*
X110782833Y-70494853D01*
X110732326Y-70646376D01*
X110782833Y-70797899D01*
X111338417Y-71353483D01*
X110782833Y-70797899D02*
X110631310Y-70747392D01*
X110479787Y-70797899D01*
X110328265Y-70949422D01*
X110277757Y-71100946D01*
X110328265Y-71252468D01*
X110883849Y-71808052D01*
X108661514Y-72111098D02*
X108560498Y-72111098D01*
X108408975Y-72161605D01*
X108156437Y-72414143D01*
X108105929Y-72565666D01*
X108105929Y-72666682D01*
X108156437Y-72818205D01*
X108257452Y-72919220D01*
X108459483Y-73020236D01*
X109671665Y-73020235D01*
X109015066Y-73676834D01*
X107297807Y-73272773D02*
X107196792Y-73373788D01*
X107146285Y-73525311D01*
X107146285Y-73626327D01*
X107196792Y-73777850D01*
X107348315Y-74030387D01*
X107600854Y-74282925D01*
X107853391Y-74434449D01*
X108004914Y-74484956D01*
X108105930Y-74484956D01*
X108257452Y-74434448D01*
X108358468Y-74333433D01*
X108408976Y-74181910D01*
X108408976Y-74080894D01*
X108358468Y-73929372D01*
X108206945Y-73676834D01*
X107954407Y-73424296D01*
X107701869Y-73272773D01*
X107550346Y-73222265D01*
X107449331Y-73222265D01*
X107297807Y-73272773D01*
X106994762Y-75697138D02*
X107600854Y-75091047D01*
X107297807Y-75394093D02*
X106237147Y-74333433D01*
X106489686Y-74383941D01*
X106691717Y-74383940D01*
X106843240Y-74333433D01*
X105782579Y-75697139D02*
X105833087Y-75545615D01*
X105833087Y-75444600D01*
X105782579Y-75293077D01*
X105732072Y-75242570D01*
X105580549Y-75192063D01*
X105479534Y-75192062D01*
X105328010Y-75242570D01*
X105125980Y-75444600D01*
X105075473Y-75596123D01*
X105075473Y-75697139D01*
X105125981Y-75848661D01*
X105176488Y-75899169D01*
X105328010Y-75949677D01*
X105429026Y-75949677D01*
X105580549Y-75899169D01*
X105782579Y-75697139D01*
X105934103Y-75646630D01*
X106035118Y-75646631D01*
X106186641Y-75697138D01*
X106388671Y-75899169D01*
X106439178Y-76050692D01*
X106439179Y-76151707D01*
X106388670Y-76303230D01*
X106186640Y-76505260D01*
X106035118Y-76555768D01*
X105934102Y-76555768D01*
X105782579Y-76505260D01*
X105580549Y-76303230D01*
X105530041Y-76151708D01*
X105530041Y-76050692D01*
X105580549Y-75899169D01*
M02*
